<svg width="2000px" height="799px"
 viewBox="0.00 0.00 991.10 396.35" xmlns="http://www.w3.org/2000/svg" xmlns:xlink="http://www.w3.org/1999/xlink">
<g id="graph0" class="graph" transform="scale(1.0 1.0) rotate(0) translate(4 392.35)">
<title>ContextMapGraph</title>
<polygon fill="white" stroke="transparent" points="-4,4 -4,-392.35 987.1,-392.35 987.1,4 -4,4"/>
<!-- GestionInventario -->
<g id="node1" class="node">
<title>GestionInventario</title>
<polygon fill="none" stroke="black" stroke-width="2" points="238.95,-370.71 232.92,-372.78 226.67,-374.76 220.21,-376.63 213.59,-378.38 206.81,-380.01 199.9,-381.52 192.9,-382.89 185.81,-384.11 178.68,-385.2 171.51,-386.13 164.34,-386.9 157.18,-387.52 150.06,-387.98 142.99,-388.27 136,-388.41 129.11,-388.38 122.32,-388.19 115.67,-387.83 109.16,-387.32 102.8,-386.66 96.61,-385.84 90.61,-384.88 84.8,-383.77 79.19,-382.53 73.79,-381.16 68.61,-379.66 63.66,-378.05 58.94,-376.32 54.45,-374.5 50.21,-372.58 46.22,-370.57 42.47,-368.49 38.97,-366.34 35.73,-364.14 32.75,-361.88 30.03,-359.58 27.57,-357.24 25.37,-354.89 23.43,-352.51 21.76,-350.13 20.36,-347.74 19.23,-345.37 18.36,-343 17.77,-340.66 17.45,-338.35 17.41,-336.07 17.64,-333.83 18.15,-331.63 18.95,-329.48 20.02,-327.38 21.38,-325.35 23.02,-323.37 24.95,-321.45 27.16,-319.61 29.66,-317.83 32.45,-316.12 35.53,-314.48 38.89,-312.92 42.54,-311.44 46.47,-310.03 50.68,-308.69 55.16,-307.44 59.92,-306.26 64.93,-305.16 70.21,-304.14 75.73,-303.2 81.49,-302.34 87.48,-301.56 93.69,-300.85 100.1,-300.23 106.7,-299.69 113.47,-299.23 120.39,-298.85 127.46,-298.56 134.64,-298.34 141.93,-298.22 149.28,-298.17 156.7,-298.22 164.14,-298.35 171.59,-298.57 179.02,-298.88 186.4,-299.28 193.72,-299.77 200.94,-300.36 208.04,-301.04 214.99,-301.81 221.76,-302.69 228.33,-303.66 234.67,-304.72 240.77,-305.89 246.58,-307.15 252.1,-308.51 257.29,-309.97 262.14,-311.52 266.63,-313.17 270.74,-314.9 274.44,-316.73 277.74,-318.64 280.6,-320.64 283.03,-322.71 285,-324.86 286.52,-327.08 287.58,-329.36 288.17,-331.71 288.3,-334.1 287.95,-336.54 287.15,-339.01 285.88,-341.52 284.16,-344.05 281.99,-346.59 279.39,-349.13 276.36,-351.68 272.93,-354.2 269.1,-356.71 264.9,-359.18 260.34,-361.61 255.45,-363.98 250.24,-366.3 244.73,-368.54 238.95,-370.71"/>
<text text-anchor="middle" x="144.1" y="-336" font-family="sans-serif" font-size="16.00">GestionInventario</text>
</g>
<!-- GestionOrdenes -->
<g id="node2" class="node">
<title>GestionOrdenes</title>
<polygon fill="none" stroke="black" stroke-width="2" points="229.4,-176.82 232.39,-174.16 235.68,-171.56 239.24,-169.03 243.08,-166.58 247.17,-164.23 251.51,-161.99 256.08,-159.85 260.86,-157.84 265.84,-155.96 271,-154.21 276.34,-152.61 281.82,-151.15 287.44,-149.85 293.19,-148.7 299.04,-147.72 304.97,-146.89 310.99,-146.23 317.06,-145.74 323.17,-145.4 329.32,-145.23 335.47,-145.23 341.63,-145.38 347.77,-145.69 353.88,-146.14 359.94,-146.75 365.95,-147.5 371.89,-148.38 377.75,-149.39 383.5,-150.53 389.15,-151.79 394.68,-153.15 400.07,-154.61 405.32,-156.17 410.41,-157.82 415.34,-159.54 420.09,-161.34 424.64,-163.19 429,-165.11 433.15,-167.07 437.08,-169.07 440.79,-171.1 444.25,-173.16 447.47,-175.25 450.43,-177.34 453.13,-179.45 455.57,-181.55 457.72,-183.66 459.58,-185.76 461.16,-187.85 462.44,-189.92 463.42,-191.98 464.08,-194.01 464.44,-196.02 464.48,-198.01 464.2,-199.96 463.61,-201.89 462.69,-203.78 461.44,-205.65 459.88,-207.47 457.99,-209.26 455.78,-211.02 453.26,-212.73 450.42,-214.41 447.27,-216.05 443.83,-217.65 440.08,-219.2 436.05,-220.71 431.74,-222.17 427.16,-223.59 422.32,-224.96 417.23,-226.27 411.91,-227.54 406.37,-228.74 400.63,-229.89 394.7,-230.97 388.59,-231.99 382.34,-232.94 375.94,-233.81 369.42,-234.61 362.81,-235.33 356.12,-235.96 349.37,-236.5 342.59,-236.95 335.78,-237.29 328.99,-237.54 322.22,-237.68 315.5,-237.71 308.85,-237.62 302.3,-237.41 295.85,-237.09 289.55,-236.64 283.39,-236.06 277.41,-235.35 271.63,-234.51 266.06,-233.54 260.72,-232.44 255.63,-231.2 250.8,-229.84 246.25,-228.34 241.99,-226.72 238.04,-224.97 234.41,-223.11 231.11,-221.12 228.15,-219.03 225.53,-216.82 223.26,-214.52 221.36,-212.13 219.82,-209.65 218.64,-207.1 217.83,-204.48 217.39,-201.8 217.31,-199.07 217.6,-196.31 218.25,-193.51 219.26,-190.71 220.62,-187.89 222.32,-185.09 224.36,-182.3 226.72,-179.54 229.4,-176.82"/>
<text text-anchor="middle" x="343.1" y="-189.94" font-family="sans-serif" font-size="16.00">GestionOrdenes</text>
</g>
<!-- GestionInventario&#45;&gt;GestionOrdenes -->
<g id="edge1" class="edge">
<title>GestionInventario&#45;&gt;GestionOrdenes</title>
<path fill="none" stroke="black" stroke-width="2" d="M135.63,-298.21C135.08,-284.98 137.1,-270.96 145.1,-260.25 161.25,-238.62 177.43,-250.58 203.1,-242.25 216.89,-237.77 231.42,-232.95 245.68,-228.16"/>
<text text-anchor="middle" x="220.6" y="-263.65" font-family="sans-serif" font-size="12.00"> &#160;&#160;&#160;&#160;&#160;&#160;&#160;&#160;&#160;&#160;&#160;&#160;&#160;&#160;&#160;&#160;&#160;&#160;&#160;&#160;&#160;&#160;&#160;&#160;&#160;&#160;&#160;&#160;&#160;&#160;&#160;&#160;&#160;&#160;&#160;&#160;&#160;&#160;&#160;</text>
<polygon fill="white" stroke="transparent" points="238.68,-219.16 238.68,-236.16 252.68,-236.16 252.68,-219.16 238.68,-219.16"/>
<text text-anchor="start" x="240.68" y="-224.56" font-family="sans-serif" font-size="12.00">D</text>
<polygon fill="white" stroke="transparent" points="128.63,-289.21 128.63,-306.21 142.63,-306.21 142.63,-289.21 128.63,-289.21"/>
<text text-anchor="start" x="130.63" y="-294.61" font-family="sans-serif" font-size="12.00">U</text>
</g>
<!-- GestionPagos -->
<g id="node3" class="node">
<title>GestionPagos</title>
<polygon fill="none" stroke="black" stroke-width="2" points="597.99,-82.17 592.57,-84.03 586.99,-85.78 581.28,-87.42 575.45,-88.94 569.54,-90.33 563.55,-91.59 557.52,-92.71 551.46,-93.69 545.4,-94.52 539.35,-95.2 533.34,-95.72 527.38,-96.09 521.49,-96.3 515.69,-96.35 509.99,-96.24 504.41,-95.97 498.96,-95.55 493.66,-94.97 488.51,-94.24 483.53,-93.36 478.73,-92.33 474.11,-91.16 469.69,-89.86 465.46,-88.43 461.44,-86.88 457.63,-85.21 454.03,-83.43 450.65,-81.55 447.49,-79.57 444.55,-77.52 441.82,-75.38 439.32,-73.18 437.05,-70.92 434.99,-68.61 433.16,-66.26 431.54,-63.87 430.15,-61.46 428.98,-59.04 428.02,-56.61 427.28,-54.18 426.76,-51.76 426.46,-49.35 426.37,-46.97 426.49,-44.61 426.83,-42.3 427.39,-40.03 428.15,-37.8 429.14,-35.63 430.33,-33.52 431.75,-31.47 433.37,-29.48 435.21,-27.57 437.27,-25.73 439.54,-23.97 442.03,-22.28 444.73,-20.68 447.65,-19.16 450.77,-17.72 454.11,-16.36 457.66,-15.1 461.42,-13.91 465.38,-12.82 469.53,-11.81 473.88,-10.89 478.42,-10.06 483.14,-9.31 488.03,-8.65 493.09,-8.08 498.3,-7.59 503.65,-7.19 509.14,-6.88 514.75,-6.66 520.46,-6.52 526.26,-6.47 532.14,-6.51 538.07,-6.63 544.05,-6.84 550.04,-7.14 556.04,-7.53 562.02,-8 567.97,-8.57 573.85,-9.22 579.65,-9.97 585.35,-10.8 590.93,-11.72 596.36,-12.74 601.62,-13.84 606.7,-15.03 611.56,-16.31 616.2,-17.69 620.59,-19.14 624.71,-20.69 628.54,-22.32 632.07,-24.03 635.28,-25.82 638.16,-27.7 640.69,-29.64 642.87,-31.66 644.67,-33.75 646.11,-35.9 647.15,-38.11 647.81,-40.37 648.08,-42.68 647.95,-45.03 647.44,-47.42 646.53,-49.84 645.24,-52.27 643.56,-54.73 641.51,-57.18 639.1,-59.64 636.33,-62.08 633.23,-64.51 629.79,-66.91 626.04,-69.27 622,-71.59 617.68,-73.85 613.1,-76.04 608.28,-78.17 603.23,-80.21 597.99,-82.17"/>
<text text-anchor="middle" x="529.1" y="-44.32" font-family="sans-serif" font-size="16.00">GestionPagos</text>
</g>
<!-- GestionInventario&#45;&gt;GestionPagos -->
<g id="edge2" class="edge">
<title>GestionInventario&#45;&gt;GestionPagos</title>
<path fill="none" stroke="black" stroke-width="2" d="M97.41,-300.27C81.45,-284.2 65.51,-264.15 57.1,-242.25 41.64,-202 29.82,-178.63 57.1,-145.23 102.93,-89.13 302.9,-64.94 427.4,-55.17"/>
<text text-anchor="middle" x="132.6" y="-190.64" font-family="sans-serif" font-size="12.00"> &#160;&#160;&#160;&#160;&#160;&#160;&#160;&#160;&#160;&#160;&#160;&#160;&#160;&#160;&#160;&#160;&#160;&#160;&#160;&#160;&#160;&#160;&#160;&#160;&#160;&#160;&#160;&#160;&#160;&#160;&#160;&#160;&#160;&#160;&#160;&#160;&#160;&#160;&#160;</text>
<polygon fill="white" stroke="transparent" points="404.4,-45.17 404.4,-64.17 420.4,-64.17 420.4,-45.17 404.4,-45.17"/>
<polyline fill="none" stroke="black" points="420.4,-45.17 420.4,-64.17 "/>
<text text-anchor="start" x="407.4" y="-51.57" font-family="sans-serif" font-size="12.00">D</text>
<polygon fill="white" stroke="transparent" points="420.4,-45.17 420.4,-64.17 450.4,-64.17 450.4,-45.17 420.4,-45.17"/>
<polygon fill="none" stroke="black" points="420.4,-45.17 420.4,-64.17 450.4,-64.17 450.4,-45.17 420.4,-45.17"/>
<text text-anchor="start" x="423.4" y="-51.57" font-family="sans-serif" font-size="12.00">ACL</text>
<polygon fill="white" stroke="transparent" points="90.41,-291.27 90.41,-308.27 104.41,-308.27 104.41,-291.27 90.41,-291.27"/>
<text text-anchor="start" x="92.41" y="-296.67" font-family="sans-serif" font-size="12.00">U</text>
</g>
<!-- GestionPromociones -->
<g id="node4" class="node">
<title>GestionPromociones</title>
<polygon fill="none" stroke="black" stroke-width="2" points="569.11,-157.03 577.07,-155.41 585.21,-153.91 593.48,-152.52 601.87,-151.26 610.33,-150.13 618.84,-149.13 627.36,-148.28 635.87,-147.56 644.34,-146.99 652.73,-146.58 661.02,-146.31 669.19,-146.2 677.21,-146.24 685.05,-146.43 692.69,-146.78 700.12,-147.28 707.32,-147.93 714.27,-148.73 720.95,-149.68 727.36,-150.76 733.48,-151.99 739.29,-153.34 744.8,-154.82 750,-156.42 754.88,-158.13 759.43,-159.95 763.66,-161.87 767.56,-163.88 771.14,-165.97 774.39,-168.13 777.31,-170.37 779.91,-172.66 782.19,-175 784.16,-177.38 785.81,-179.79 787.15,-182.23 788.18,-184.68 788.92,-187.13 789.36,-189.59 789.5,-192.03 789.36,-194.46 788.93,-196.86 788.22,-199.23 787.23,-201.56 785.96,-203.84 784.42,-206.07 782.6,-208.25 780.52,-210.36 778.17,-212.41 775.55,-214.38 772.66,-216.28 769.51,-218.1 766.1,-219.84 762.42,-221.5 758.47,-223.06 754.27,-224.54 749.81,-225.93 745.08,-227.23 740.11,-228.43 734.88,-229.54 729.4,-230.55 723.68,-231.47 717.73,-232.3 711.54,-233.03 705.13,-233.66 698.5,-234.2 691.68,-234.65 684.66,-235 677.46,-235.27 670.1,-235.43 662.6,-235.51 654.96,-235.5 647.21,-235.39 639.37,-235.2 631.45,-234.91 623.5,-234.54 615.51,-234.08 607.53,-233.53 599.58,-232.89 591.68,-232.16 583.87,-231.35 576.16,-230.45 568.6,-229.47 561.21,-228.4 554.01,-227.25 547.04,-226.01 540.33,-224.7 533.9,-223.3 527.79,-221.82 522.02,-220.26 516.61,-218.63 511.6,-216.92 507,-215.14 502.84,-213.29 499.13,-211.38 495.9,-209.4 493.17,-207.36 490.94,-205.26 489.24,-203.11 488.06,-200.92 487.42,-198.68 487.32,-196.41 487.77,-194.11 488.76,-191.78 490.29,-189.43 492.36,-187.07 494.96,-184.7 498.07,-182.34 501.69,-179.99 505.81,-177.65 510.39,-175.34 515.43,-173.06 520.9,-170.83 526.78,-168.64 533.04,-166.52 539.65,-164.45 546.6,-162.47 553.85,-160.56 561.36,-158.75 569.11,-157.03"/>
<text text-anchor="middle" x="650.1" y="-189.94" font-family="sans-serif" font-size="16.00">GestionPromociones</text>
</g>
<!-- GestionInventario&#45;&gt;GestionPromociones -->
<g id="edge3" class="edge">
<title>GestionInventario&#45;&gt;GestionPromociones</title>
<path fill="none" stroke="black" stroke-width="2" d="M228.1,-303.58C250.32,-293.99 274.21,-283.43 296.1,-273.25 307.81,-267.8 309.72,-263.93 322.1,-260.25 388.99,-240.34 409.59,-255.58 478.1,-242.25 500.45,-237.9 524.14,-232.13 546.57,-226.12"/>
<text text-anchor="middle" x="397.6" y="-263.65" font-family="sans-serif" font-size="12.00"> &#160;&#160;&#160;&#160;&#160;&#160;&#160;&#160;&#160;&#160;&#160;&#160;&#160;&#160;&#160;&#160;&#160;&#160;&#160;&#160;&#160;&#160;&#160;&#160;&#160;&#160;&#160;&#160;&#160;&#160;&#160;&#160;&#160;&#160;&#160;&#160;&#160;&#160;&#160;</text>
<polygon fill="white" stroke="transparent" points="527.57,-216.12 527.57,-235.12 543.57,-235.12 543.57,-216.12 527.57,-216.12"/>
<polyline fill="none" stroke="black" points="543.57,-216.12 543.57,-235.12 "/>
<text text-anchor="start" x="530.57" y="-222.52" font-family="sans-serif" font-size="12.00">D</text>
<polygon fill="white" stroke="transparent" points="543.57,-216.12 543.57,-235.12 565.57,-235.12 565.57,-216.12 543.57,-216.12"/>
<polygon fill="none" stroke="black" points="543.57,-216.12 543.57,-235.12 565.57,-235.12 565.57,-216.12 543.57,-216.12"/>
<text text-anchor="start" x="546.57" y="-222.52" font-family="sans-serif" font-size="12.00">CF</text>
<polygon fill="white" stroke="transparent" points="221.1,-294.58 221.1,-311.58 235.1,-311.58 235.1,-294.58 221.1,-294.58"/>
<text text-anchor="start" x="223.1" y="-299.98" font-family="sans-serif" font-size="12.00">U</text>
</g>
<!-- GestionOrdenes&#45;&gt;GestionPagos -->
<g id="edge4" class="edge">
<title>GestionOrdenes&#45;&gt;GestionPagos</title>
<path fill="none" stroke="black" stroke-width="2" d="M387.27,-151.13C400.97,-138.83 416.35,-125.62 431.1,-114.23 442.26,-105.62 454.52,-96.92 466.48,-88.8"/>
<text text-anchor="middle" x="506.6" y="-117.63" font-family="sans-serif" font-size="12.00"> &#160;&#160;&#160;&#160;&#160;&#160;&#160;&#160;&#160;&#160;&#160;&#160;&#160;&#160;&#160;&#160;&#160;&#160;&#160;&#160;&#160;&#160;&#160;&#160;&#160;&#160;&#160;&#160;&#160;&#160;&#160;&#160;&#160;&#160;&#160;&#160;&#160;&#160;&#160;</text>
<polygon fill="white" stroke="transparent" points="443.48,-78.8 443.48,-97.8 459.48,-97.8 459.48,-78.8 443.48,-78.8"/>
<polyline fill="none" stroke="black" points="459.48,-78.8 459.48,-97.8 "/>
<text text-anchor="start" x="446.48" y="-85.2" font-family="sans-serif" font-size="12.00">D</text>
<polygon fill="white" stroke="transparent" points="459.48,-78.8 459.48,-97.8 489.48,-97.8 489.48,-78.8 459.48,-78.8"/>
<polygon fill="none" stroke="black" points="459.48,-78.8 459.48,-97.8 489.48,-97.8 489.48,-78.8 459.48,-78.8"/>
<text text-anchor="start" x="462.48" y="-85.2" font-family="sans-serif" font-size="12.00">ACL</text>
<polygon fill="white" stroke="transparent" points="380.27,-142.13 380.27,-159.13 394.27,-159.13 394.27,-142.13 380.27,-142.13"/>
<text text-anchor="start" x="382.27" y="-147.53" font-family="sans-serif" font-size="12.00">U</text>
</g>
<!-- GestionPromociones&#45;&gt;GestionPagos -->
<g id="edge5" class="edge">
<title>GestionPromociones&#45;&gt;GestionPagos</title>
<path fill="none" stroke="black" stroke-width="2" d="M613.8,-149.65C598.34,-131.31 580.37,-109.97 564.96,-91.68"/>
<text text-anchor="middle" x="669.6" y="-117.63" font-family="sans-serif" font-size="12.00"> &#160;&#160;&#160;&#160;&#160;&#160;&#160;&#160;&#160;&#160;&#160;&#160;&#160;&#160;&#160;&#160;&#160;&#160;&#160;&#160;&#160;&#160;&#160;&#160;&#160;&#160;&#160;&#160;&#160;&#160;&#160;&#160;&#160;&#160;&#160;&#160;&#160;&#160;&#160;</text>
<polygon fill="white" stroke="transparent" points="541.96,-81.68 541.96,-100.68 557.96,-100.68 557.96,-81.68 541.96,-81.68"/>
<polyline fill="none" stroke="black" points="557.96,-81.68 557.96,-100.68 "/>
<text text-anchor="start" x="544.96" y="-88.08" font-family="sans-serif" font-size="12.00">D</text>
<polygon fill="white" stroke="transparent" points="557.96,-81.68 557.96,-100.68 587.96,-100.68 587.96,-81.68 557.96,-81.68"/>
<polygon fill="none" stroke="black" points="557.96,-81.68 557.96,-100.68 587.96,-100.68 587.96,-81.68 557.96,-81.68"/>
<text text-anchor="start" x="560.96" y="-88.08" font-family="sans-serif" font-size="12.00">ACL</text>
<polygon fill="white" stroke="transparent" points="606.8,-140.65 606.8,-157.65 620.8,-157.65 620.8,-140.65 606.8,-140.65"/>
<text text-anchor="start" x="608.8" y="-146.05" font-family="sans-serif" font-size="12.00">U</text>
</g>
<!-- GestionUsuarios -->
<g id="node5" class="node">
<title>GestionUsuarios</title>
<polygon fill="none" stroke="black" stroke-width="2" points="639.43,-296.92 647.36,-296.26 655.31,-295.73 663.25,-295.32 671.16,-295.04 678.99,-294.89 686.73,-294.87 694.34,-294.98 701.78,-295.22 709.05,-295.6 716.1,-296.1 722.92,-296.74 729.49,-297.51 735.78,-298.4 741.77,-299.42 747.46,-300.56 752.82,-301.82 757.84,-303.2 762.52,-304.69 766.84,-306.28 770.79,-307.98 774.38,-309.77 777.6,-311.66 780.45,-313.62 782.93,-315.67 785.05,-317.79 786.8,-319.97 788.19,-322.21 789.23,-324.5 789.93,-326.83 790.29,-329.2 790.33,-331.59 790.06,-334.01 789.48,-336.43 788.61,-338.86 787.47,-341.29 786.05,-343.7 784.38,-346.1 782.47,-348.47 780.32,-350.8 777.95,-353.1 775.37,-355.34 772.59,-357.54 769.62,-359.67 766.47,-361.73 763.15,-363.73 759.67,-365.65 756.02,-367.48 752.23,-369.23 748.29,-370.89 744.22,-372.45 740.01,-373.91 735.67,-375.27 731.2,-376.53 726.62,-377.68 721.91,-378.72 717.09,-379.65 712.15,-380.46 707.1,-381.17 701.95,-381.76 696.7,-382.23 691.34,-382.59 685.89,-382.84 680.34,-382.97 674.71,-382.99 669,-382.9 663.22,-382.7 657.37,-382.39 651.47,-381.97 645.52,-381.44 639.54,-380.81 633.53,-380.08 627.51,-379.25 621.49,-378.33 615.5,-377.31 609.54,-376.2 603.63,-375 597.8,-373.72 592.05,-372.35 586.42,-370.91 580.92,-369.39 575.57,-367.79 570.4,-366.13 565.42,-364.41 560.66,-362.62 556.15,-360.78 551.9,-358.88 547.94,-356.94 544.28,-354.95 540.96,-352.92 537.98,-350.85 535.37,-348.75 533.14,-346.62 531.32,-344.47 529.91,-342.3 528.93,-340.12 528.39,-337.93 528.31,-335.73 528.68,-333.54 529.51,-331.36 530.81,-329.19 532.58,-327.03 534.81,-324.9 537.5,-322.8 540.65,-320.73 544.25,-318.71 548.28,-316.73 552.74,-314.8 557.6,-312.93 562.85,-311.12 568.47,-309.39 574.44,-307.72 580.73,-306.14 587.32,-304.64 594.19,-303.23 601.29,-301.91 608.61,-300.7 616.12,-299.58 623.78,-298.58 631.56,-297.69 639.43,-296.92"/>
<text text-anchor="middle" x="666.1" y="-336" font-family="sans-serif" font-size="16.00">GestionUsuarios</text>
</g>
<!-- GestionUsuarios&#45;&gt;GestionOrdenes -->
<g id="edge7" class="edge">
<title>GestionUsuarios&#45;&gt;GestionOrdenes</title>
<path fill="none" stroke="black" stroke-width="2" d="M581,-305.95C555.76,-295.84 528.17,-284.42 503.1,-273.25 471.73,-259.26 437.48,-242.65 408.75,-228.31"/>
<text text-anchor="middle" x="578.6" y="-263.65" font-family="sans-serif" font-size="12.00"> &#160;&#160;&#160;&#160;&#160;&#160;&#160;&#160;&#160;&#160;&#160;&#160;&#160;&#160;&#160;&#160;&#160;&#160;&#160;&#160;&#160;&#160;&#160;&#160;&#160;&#160;&#160;&#160;&#160;&#160;&#160;&#160;&#160;&#160;&#160;&#160;&#160;&#160;&#160;</text>
<polygon fill="white" stroke="transparent" points="385.75,-218.31 385.75,-237.31 401.75,-237.31 401.75,-218.31 385.75,-218.31"/>
<polyline fill="none" stroke="black" points="401.75,-218.31 401.75,-237.31 "/>
<text text-anchor="start" x="388.75" y="-224.71" font-family="sans-serif" font-size="12.00">D</text>
<polygon fill="white" stroke="transparent" points="401.75,-218.31 401.75,-237.31 431.75,-237.31 431.75,-218.31 401.75,-218.31"/>
<polygon fill="none" stroke="black" points="401.75,-218.31 401.75,-237.31 431.75,-237.31 431.75,-218.31 401.75,-218.31"/>
<text text-anchor="start" x="404.75" y="-224.71" font-family="sans-serif" font-size="12.00">ACL</text>
<polygon fill="white" stroke="transparent" points="574,-296.95 574,-313.95 588,-313.95 588,-296.95 574,-296.95"/>
<text text-anchor="start" x="576" y="-302.35" font-family="sans-serif" font-size="12.00">U</text>
</g>
<!-- GestionUsuarios&#45;&gt;GestionPagos -->
<g id="edge6" class="edge">
<title>GestionUsuarios&#45;&gt;GestionPagos</title>
<path fill="none" stroke="black" stroke-width="2" d="M769.84,-307.45C786.46,-298.6 802.11,-287.39 814.1,-273.25 839.41,-243.39 833.82,-162.95 822.1,-145.23 800.09,-111.97 704.44,-84.87 628.33,-68.02"/>
<text text-anchor="middle" x="907.6" y="-190.64" font-family="sans-serif" font-size="12.00"> &#160;&#160;&#160;&#160;&#160;&#160;&#160;&#160;&#160;&#160;&#160;&#160;&#160;&#160;&#160;&#160;&#160;&#160;&#160;&#160;&#160;&#160;&#160;&#160;&#160;&#160;&#160;&#160;&#160;&#160;&#160;&#160;&#160;&#160;&#160;&#160;&#160;&#160;&#160;</text>
<polygon fill="white" stroke="transparent" points="605.33,-58.02 605.33,-77.02 621.33,-77.02 621.33,-58.02 605.33,-58.02"/>
<polyline fill="none" stroke="black" points="621.33,-58.02 621.33,-77.02 "/>
<text text-anchor="start" x="608.33" y="-64.42" font-family="sans-serif" font-size="12.00">D</text>
<polygon fill="white" stroke="transparent" points="621.33,-58.02 621.33,-77.02 651.33,-77.02 651.33,-58.02 621.33,-58.02"/>
<polygon fill="none" stroke="black" points="621.33,-58.02 621.33,-77.02 651.33,-77.02 651.33,-58.02 621.33,-58.02"/>
<text text-anchor="start" x="624.33" y="-64.42" font-family="sans-serif" font-size="12.00">ACL</text>
<polygon fill="white" stroke="transparent" points="762.84,-298.45 762.84,-315.45 776.84,-315.45 776.84,-298.45 762.84,-298.45"/>
<text text-anchor="start" x="764.84" y="-303.85" font-family="sans-serif" font-size="12.00">U</text>
</g>
<!-- GestionUsuarios&#45;&gt;GestionPromociones -->
<g id="edge8" class="edge">
<title>GestionUsuarios&#45;&gt;GestionPromociones</title>
<path fill="none" stroke="black" stroke-width="2" d="M661.26,-295.19C659.16,-276.3 656.72,-254.32 654.65,-235.74"/>
<text text-anchor="middle" x="734.6" y="-263.65" font-family="sans-serif" font-size="12.00"> &#160;&#160;&#160;&#160;&#160;&#160;&#160;&#160;&#160;&#160;&#160;&#160;&#160;&#160;&#160;&#160;&#160;&#160;&#160;&#160;&#160;&#160;&#160;&#160;&#160;&#160;&#160;&#160;&#160;&#160;&#160;&#160;&#160;&#160;&#160;&#160;&#160;&#160;&#160;</text>
<polygon fill="white" stroke="transparent" points="647.65,-226.74 647.65,-243.74 661.65,-243.74 661.65,-226.74 647.65,-226.74"/>
<text text-anchor="start" x="649.65" y="-232.14" font-family="sans-serif" font-size="12.00">D</text>
<polygon fill="white" stroke="transparent" points="654.26,-286.19 654.26,-303.19 668.26,-303.19 668.26,-286.19 654.26,-286.19"/>
<text text-anchor="start" x="656.26" y="-291.59" font-family="sans-serif" font-size="12.00">U</text>
</g>
</g>
</svg>
